<?xml version="1.0" encoding="UTF-8" standalone="no"?>
<svg
   xmlns:dc="http://purl.org/dc/elements/1.1/"
   xmlns:cc="http://creativecommons.org/ns#"
   xmlns:rdf="http://www.w3.org/1999/02/22-rdf-syntax-ns#"
   xmlns:svg="http://www.w3.org/2000/svg"
   xmlns="http://www.w3.org/2000/svg"
   xmlns:sodipodi="http://sodipodi.sourceforge.net/DTD/sodipodi-0.dtd"
   xmlns:inkscape="http://www.inkscape.org/namespaces/inkscape"
   width="500"
   height="466.43201"
   viewBox="0 0 132.29167 123.41014"
   version="1.1"
   id="svg237"
   inkscape:version="1.0.1 (3bc2e813f5, 2020-09-07)"
   sodipodi:docname="logo.svg">
  <defs
     id="defs231" />
  <sodipodi:namedview
     id="base"
     pagecolor="#ffffff"
     bordercolor="#666666"
     borderopacity="1.0"
     inkscape:pageopacity="0.0"
     inkscape:pageshadow="2"
     inkscape:zoom="0.35"
     inkscape:cx="400"
     inkscape:cy="560"
     inkscape:document-units="px"
     inkscape:current-layer="layer1"
     inkscape:document-rotation="0"
     showgrid="false"
     units="px"
     inkscape:window-width="1920"
     inkscape:window-height="1017"
     inkscape:window-x="0"
     inkscape:window-y="27"
     inkscape:window-maximized="1" />
  <metadata
     id="metadata234">
    <rdf:RDF>
      <cc:Work
         rdf:about="">
        <dc:format>image/svg+xml</dc:format>
        <dc:type
           rdf:resource="http://purl.org/dc/dcmitype/StillImage" />
        <dc:title></dc:title>
      </cc:Work>
    </rdf:RDF>
  </metadata>
  <g
     inkscape:label="Layer 1"
     inkscape:groupmode="layer"
     id="layer1">
    <path
       style="fill:#000000;stroke-width:0.29089"
       id="path100"
       d="m 10.647536,31.635831 c 1.037376,1.755556 2.175505,3.448698 3.195246,5.214677 1.108752,1.975497 2.008117,4.058584 2.896994,6.139395 1.104992,2.334581 2.097226,4.716306 3.032367,7.123196 1.086433,2.718293 2.122875,5.455802 3.140418,8.200516 0.971323,2.573729 1.84649,5.184531 2.669247,7.809348 0.714002,2.444339 1.339775,4.913699 1.990097,7.375615 0.612888,2.198131 1.13538,4.419341 1.488879,6.673916 0.383877,2.467074 0.694476,4.951156 0.895705,7.440689 0.21562,2.283953 0.237641,4.576009 0.218885,6.867723 0.0033,1.92388 -0.22281,3.834762 -0.487641,5.736844 -0.307971,1.96597 -0.747325,3.90693 -1.250094,5.83117 -0.410218,1.69232 -1.101759,3.27924 -1.883002,4.82722 -0.618417,1.2444 -1.427355,2.36835 -2.323839,3.42395 -0.658338,0.75528 -1.432754,1.38944 -2.263647,1.94367 -0.988661,0.60619 -2.04078,1.10304 -3.103444,1.5641 -1.025184,0.46609 -2.100073,0.7989 -3.205098,1.00777 -0.933711,0.17179 -1.871886,0.0898 -2.798836,-0.0718 -0.895485,-0.13293 -1.724949,-0.50628 -2.538481,-0.88633 -0.6902551,-0.37898 -1.3272525,-0.84557 -1.9113568,-1.37196 -0.7760865,-0.6716 -1.3898314,-1.49735 -1.9805103,-2.32953 -0.6155919,-0.86885 -0.9721805,-1.85904 -1.2689822,-2.87111 -0.303937,-1.08665 -0.4204214,-2.20046 -0.4434215,-3.32442 0.042218,-1.26231 0.3602717,-2.49198 0.7035353,-3.70041 0.4520629,-1.49064 0.9798545,-2.95622 1.5595831,-4.401758 0.4804392,-1.0594 0.9431337,-2.12355 1.4879444,-3.15201 0.6455734,-1.28909 1.3557379,-2.543878 2.074918,-3.793115 0.680425,-1.307902 1.509262,-2.522901 2.328567,-3.74506 0.993455,-1.402628 2.032041,-2.773813 3.118551,-4.105608 1.058123,-1.30944 2.194305,-2.549486 3.350343,-3.771973 1.182391,-1.208568 2.426274,-2.355328 3.676632,-3.492786 1.157588,-1.026985 2.333745,-2.034348 3.531946,-3.013808 1.155423,-0.948133 2.349226,-1.847159 3.547009,-2.740609 1.133588,-0.847419 2.268605,-1.694661 3.457834,-2.462864 1.126585,-0.76232 2.303116,-1.445089 3.464739,-2.15156 0.837006,-0.495028 1.676771,-0.984164 2.549563,-1.413576 0.803254,-0.411869 1.604462,-0.829027 2.412212,-1.232308 0.756814,-0.368517 1.525512,-0.712452 2.280753,-1.084047 0.83152,-0.380688 1.627561,-0.832883 2.44835,-1.23424 0.789126,-0.406149 1.57613,-0.821108 2.368609,-1.222728 1.03985,-0.50354 2.121732,-0.912009 3.185682,-1.360291 0.654094,-0.308114 1.32369,-0.580881 1.990493,-0.859709 0.222832,-0.131468 0.525801,-0.158317 0.713023,-0.343396 1.033749,-1.265013 0.536697,-4.706898 -1.187075,-4.651475 -1.012265,-0.02492 -1.620975,0.601879 -2.212094,1.278614 -0.292931,0.37285 -0.64377,0.6915 -0.958217,1.045196 -0.535862,0.563886 -1.040719,1.150562 -1.507636,1.772762 -0.502702,0.666398 -0.884699,1.411348 -1.22893,2.168853 -0.291931,0.628312 -0.47393,1.292092 -0.634062,1.963525 -0.169752,0.706713 -0.24039,1.425771 -0.239324,2.151096 0.011,0.877003 0.165563,1.732932 0.424798,2.567969 0.317075,0.884997 0.896441,1.574635 1.613378,2.161849 0.6483,0.497074 1.373593,0.853827 2.159002,1.068283 0.920057,0.235576 1.875262,0.164915 2.809469,0.07124 1.199784,-0.180262 2.378437,-0.497909 3.523624,-0.895826 0.929489,-0.34191 1.818707,-0.780364 2.694798,-1.239604 0.918407,-0.492908 1.742813,-1.148299 2.517888,-1.840918 0.969894,-0.874506 1.800567,-1.890115 2.588638,-2.927635 0.576243,-0.757516 1.021808,-1.597194 1.412897,-2.461497 0.220875,-0.517238 0.363097,-1.060302 0.511047,-1.601153 0.11046,-0.471126 0.166751,-0.95148 0.216335,-1.432182 0.05178,-0.674005 -0.0575,-1.345645 -0.231496,-1.994627 -0.167982,-0.55396 -0.504802,-1.028355 -0.858346,-1.478494 -0.03298,-0.177583 -0.842667,-0.627456 -0.640516,-0.491683 -0.07663,-0.02764 -0.477899,-0.266107 -0.682173,-0.38715 -0.152897,-0.06937 -0.403534,-0.198867 -0.615174,-0.281998 -0.257101,-0.07683 -0.506551,-0.177847 -0.767291,-0.242075 -5.223912,3.355176 -1.173431,4.295342 0.368616,4.945314 -1.450399,0.03177 0.914747,0.04167 1.1115,0.03012 0.966585,-0.02409 1.928508,-0.128512 2.890969,-0.213543 0.740124,-0.07058 1.481348,-0.127567 2.223957,-0.163276 0.707196,-0.05343 1.422825,-0.08774 2.117015,-0.241204 0.623695,-0.07927 1.246774,-0.212914 1.855978,-0.375467 0.779242,-0.128664 1.550524,-0.297261 2.314297,-0.500866 0.598463,-0.184527 1.211603,-0.298658 1.81641,-0.459933 0.223557,-0.101477 0.545877,-0.08718 0.724963,-0.267404 -3.640702,-0.708482 -2.014054,0.240357 -1.12333,-4.32392 0.02243,-0.115176 -0.299012,-0.03364 -0.344044,0.07469 -0.489389,1.177464 -0.798053,2.422148 -1.197069,3.633222 0.181835,0.210913 0.535982,0.669874 0.809652,0.712798 0.714925,0.112129 1.453148,-0.06158 2.170756,0.03177 0.189816,0.02473 -0.373674,0.264248 -0.545405,0.179689 -0.90727,-0.446685 -1.6897,-1.111545 -2.534567,-1.66732 0.03903,0.655531 0.253902,1.279485 0.380908,1.918926 0.08048,0.654896 0.205813,1.302064 0.39873,1.933113 0.313974,0.850594 0.849715,1.582475 1.432918,2.266132 0.694772,0.801054 1.602339,1.333616 2.539327,1.799917 0.876223,0.437155 1.767837,0.79813 2.739963,0.934691 1.244322,0.13269 2.376579,-0.372389 3.457757,-0.919309 0.781254,-0.419994 1.516222,-0.920684 2.249277,-1.418638 0.684504,-0.416395 1.234339,-1.003855 1.744891,-1.612641 0.603411,-0.762133 1.147309,-1.570864 1.680631,-2.383207 0.549417,-0.878479 0.954556,-1.839444 1.336981,-2.79971 0.464894,-1.129348 0.822571,-2.296147 1.164625,-3.467154 0.377599,-1.297853 0.721082,-2.60537 1.05654,-3.914669 0.358644,-1.371053 0.689022,-2.749549 1.061289,-4.116974 0.432911,-1.560441 0.767731,-3.143783 1.100286,-4.727674 0.379654,-1.694846 0.553452,-3.427809 0.666561,-5.15832 0.138165,-1.804316 0.177789,-3.612117 0.223196,-5.420248 0.0517,-1.99698 0.009,-3.993388 -0.0752,-5.988631 -0.106426,-2.036367 -0.4006,-4.053521 -0.819637,-6.047192 -0.270965,-1.201752 -0.615042,-2.386408 -1.008384,-3.55344 C 97.271795,10.623865 96.849494,9.5375192 96.370462,8.4738445 95.888967,7.4562356 95.325367,6.4806248 94.761262,5.5073668 94.323788,4.7923096 93.861434,4.093249 93.366977,3.416386 92.991578,2.9040084 92.562185,2.4395328 92.112222,1.993099 91.670548,1.5385623 91.134401,1.2276549 90.573418,0.94482698 c -0.746941,-0.3151732 -1.521444,-0.582818 -2.319464,-0.7326371 -0.51218,-0.1196068 -1.045095,-0.2157628 -1.574228,-0.2067695 -0.509123,-0.023748 -1.00557,0.029904 -1.497729,0.1607254 -0.692706,0.2471295 -1.275007,0.6983459 -1.820302,1.17869722 -0.768544,0.7301414 -1.345051,1.6394016 -1.876658,2.5497943 -0.609831,1.0845641 -0.99307,2.2805443 -1.296138,3.4827802 -0.366923,1.2105367 -0.462299,2.4733077 -0.463651,3.7311085 0.05398,1.40364 0.321704,2.780586 0.658371,4.139996 0.317789,1.455017 0.68026,2.896598 1.094437,4.327295 0.414748,1.434172 0.86956,2.856337 1.313432,4.281658 0.451909,1.482579 0.835115,2.983266 1.322799,4.454818 0.530628,1.500962 1.07611,2.995668 1.648395,4.481259 0.827199,2.163455 1.847809,4.244047 2.911781,6.298812 1.20128,2.305348 2.584415,4.506238 3.935151,6.724819 1.496113,2.467975 3.013522,4.920931 4.680817,7.277495 1.798488,2.453055 3.747479,4.7928 5.716209,7.110074 1.76484,2.10479 3.63002,4.121856 5.44077,6.186649 1.79272,2.045972 3.50074,4.162942 5.31353,6.191047 1.96157,2.159827 3.87796,4.359497 5.80117,6.553221 1.55522,1.769585 3.07576,3.569094 4.55679,5.401215 0.97436,1.200633 1.98616,2.372491 3.01878,3.523559 0.44222,0.429436 0.81864,0.917989 1.25051,1.354793 1.57039,1.475423 0.58734,0.205944 3.9035,-3.259026 -1.73914,1.059598 -1.05925,0.653666 -2.03171,1.231054 0.0153,-0.133065 -0.17289,-0.154681 -0.18817,-0.02167 v 0 c -0.90592,0.887667 -0.29072,0.317536 -1.93433,1.609331 1.24188,-1.093192 2.46009,-2.213873 3.72564,-3.279583 0.0453,-0.03804 0.12984,0.179878 0.12996,0.12074 6e-5,-0.02287 -0.0822,-0.01175 -0.0495,-0.04761 -0.38091,-0.345925 -0.74689,-0.70273 -1.09155,-1.087113 -0.99783,-1.079605 -1.96368,-2.184366 -2.90814,-3.311479 -1.55101,-1.829637 -3.0638,-3.692089 -4.65281,-5.489173 -1.91561,-2.204209 -3.87317,-4.370389 -5.82007,-6.546733 -1.77187,-2.067166 -3.57021,-4.110805 -5.33591,-6.183271 -1.79688,-2.040728 -3.65404,-4.027306 -5.43569,-6.081699 -1.87869,-2.213679 -3.73024,-4.453027 -5.46893,-6.779197 -1.620094,-2.26059 -3.13897,-4.590411 -4.586093,-6.965561 -1.32834,-2.118543 -2.619113,-4.259713 -3.813345,-6.45746 -1.049305,-1.893138 -2.080635,-3.79681 -2.935518,-5.787929 -0.607258,-1.358542 -1.176696,-2.734499 -1.666469,-4.140283 -0.483232,-1.435578 -0.886656,-2.895048 -1.336202,-4.341302 -0.42583,-1.404585 -0.865261,-2.805092 -1.278635,-4.213449 -0.389967,-1.359828 -0.763795,-2.724054 -1.073515,-4.104815 -0.23354,-1.076604 -0.479504,-2.158925 -0.547779,-3.261223 -0.04958,-0.86956 0.01319,-1.7292798 0.218127,-2.5785445 0.235717,-0.8459552 0.45325,-1.6996503 0.846703,-2.4891609 0.310005,-0.5507586 0.643836,-1.084663 1.041741,-1.5768661 0.08356,-0.081578 0.600892,-0.4504028 0.232375,-0.2790239 -0.421961,0.083666 0.0044,-0.010994 0.197798,0.037271 0.244139,0.031883 0.474525,0.0033 0.710209,0.097299 0.495655,0.1737976 1.00811,0.2974174 1.496828,0.492346 0.02716,0.042108 0.167696,0.2122557 0.240423,0.2836195 0.292261,0.3359964 0.557069,0.6960701 0.868493,1.0157509 0.419795,0.5569375 0.719543,1.1869209 1.07213,1.7867801 0.489938,0.7930071 1.011507,1.5722491 1.362554,2.4404999 0.394069,0.951577 0.772019,1.911488 1.087313,2.892398 0.327707,1.019181 0.607478,2.051578 0.872528,3.088701 0.385262,1.742627 0.590053,3.50997 0.654358,5.294298 0.08587,1.892281 0.07982,3.786651 0.05585,5.680471 -0.03628,1.720903 -0.133284,3.441134 -0.250274,5.158244 -0.145003,1.530162 -0.283597,3.063425 -0.588238,4.572346 -0.313601,1.5078 -0.703832,2.997911 -1.095888,4.486976 -0.348948,1.38506 -0.732824,2.760973 -1.071844,4.148595 -0.319098,1.262979 -0.630357,2.527607 -1.015663,3.772765 -0.28451,1.003129 -0.564963,2.012878 -0.983449,2.970248 -0.290623,0.671907 -0.550693,1.367147 -0.958636,1.978778 -0.435473,0.655657 -0.868351,1.314162 -1.365039,1.926061 -0.239764,0.282369 -0.497151,0.526318 -0.802495,0.739674 -0.559631,0.388968 -1.1032,0.80753 -1.706159,1.128399 -0.137363,0.07179 -1.048811,0.391958 -0.572373,0.399509 -0.463322,-0.101037 -0.919452,-0.23145 -1.346657,-0.445246 -0.396333,-0.191949 -0.815116,-0.37044 -1.148694,-0.66158 -0.225889,-0.228969 -0.439145,-0.467147 -0.64996,-0.709791 -0.186848,-0.376082 -0.285423,-0.793427 -0.366253,-1.211232 -0.09697,-0.4868 -0.170895,-0.977988 -0.27533,-1.46288 -0.143948,-1.307855 -0.02562,-0.829732 -2.610427,-2.296434 -0.194401,-0.110315 -0.85883,0.143938 -0.641385,0.195697 0.643485,0.153168 1.330869,-0.0012 1.980554,0.123066 0.241545,0.0462 0.42925,0.320314 0.574177,0.508808 -0.475525,1.105099 -0.912174,2.227755 -1.426596,3.31529 -0.02276,0.04816 -0.173974,0.08191 -0.156526,0.03155 1.583858,-4.564671 2.81579,-3.688604 -0.991289,-4.601007 -0.06629,-0.01572 -0.141386,-0.02979 -0.20446,-0.0044 -0.649114,0.125753 -1.290202,0.28883 -1.927133,0.463009 -0.70159,0.168804 -1.402662,0.337157 -2.10612,0.494054 -0.518293,0.08437 -1.024294,0.21075 -1.534616,0.326088 -0.5939,0.03606 -1.181192,0.158058 -1.777566,0.175232 -0.781474,0.07171 -1.564971,0.120813 -2.345488,0.203467 -0.875068,0.08997 -1.751983,0.156816 -2.629492,0.217676 -0.571318,0.0097 -0.49604,0.02397 -1.146682,-0.01923 1.318743,0.622837 4.994308,1.355125 -0.456581,4.335454 -0.146301,-0.05508 -0.278496,-0.135142 -0.430228,-0.178953 -0.241721,-0.127645 -0.09961,-0.04057 0.06465,0.05838 0.561456,0.278309 -0.02902,-0.05486 0.261433,0.153578 0.361426,0.246789 -0.171852,-0.03188 -0.208869,-0.150522 -0.02837,-0.05563 -0.166344,-0.307753 -0.124797,-0.172908 -0.04783,-0.363074 -0.07575,0.129435 -0.108403,0.253407 -0.02144,0.235994 -0.02045,0.473118 -0.111504,0.696289 -0.07256,0.292055 -0.134515,0.586811 -0.276528,0.855884 -0.23309,0.532751 -0.528749,1.029176 -0.886678,1.489133 -0.593461,0.769358 -1.21145,1.527096 -1.9167,2.197482 -0.529836,0.436132 -1.032286,0.909865 -1.648648,1.226225 -0.661504,0.35681 -1.322128,0.721138 -2.034514,0.96841 -0.797206,0.288007 -1.600548,0.538281 -2.446063,0.640933 -0.372816,0.04574 -0.763839,0.06531 -1.129663,0.08444 -0.173962,0.02473 -0.347694,-0.09972 -0.504967,-0.161658 -0.126523,-0.06674 -0.132525,0.09422 -0.23265,-0.08301 -0.247152,-0.2606 -0.20323,-0.702812 -0.26902,-1.034378 -0.02529,-0.382623 -0.03606,-0.752655 0.06959,-1.128122 0.0763,-0.390142 0.158153,-0.782981 0.33449,-1.142382 0.213498,-0.482837 0.434714,-0.95979 0.762311,-1.379455 0.34709,-0.478261 0.765807,-0.900716 1.181765,-1.318906 0.379291,-0.336426 0.736562,-0.694739 1.096339,-1.051683 0.764212,-0.76464 -0.28959,0.385847 -1.091821,0.255838 -0.217027,-1.513462 0.637702,-3.868771 -0.742631,-4.526312 -0.229516,-0.02828 -0.452843,0.196334 -0.675708,0.229841 -0.680964,0.27668 -1.349867,0.580922 -2.030293,0.858746 -1.172155,0.49178 -2.369411,0.925509 -3.509155,1.491474 -0.824033,0.410263 -1.631871,0.853508 -2.458179,1.257031 -0.73521,0.419609 -1.524622,0.745886 -2.265845,1.156996 -0.788554,0.365109 -1.569489,0.745864 -2.364189,1.097702 -0.825418,0.408435 -1.637148,0.844327 -2.468338,1.241132 -0.966177,0.508035 -1.929991,1.019324 -2.85604,1.59911 -1.238583,0.731623 -2.467623,1.480643 -3.675235,2.262415 -1.255393,0.849274 -2.477562,1.744496 -3.681975,2.664617 -1.25857,0.945091 -2.520912,1.88586 -3.732889,2.890913 -1.263738,1.045864 -2.518966,2.102131 -3.727909,3.211553 -1.336883,1.234076 -2.667235,2.478022 -3.920033,3.798284 -1.240936,1.331109 -2.425263,2.715037 -3.56172,4.136412 -1.133521,1.455278 -2.2257261,2.940861 -3.2779013,4.456278 C 7.837102,87.699149 7.0149275,89.094486 6.2134442,90.49937 5.4928459,91.835011 4.7455424,93.157734 4.0935594,94.528974 3.5457912,95.699446 2.9669641,96.858749 2.52097,98.073366 1.8757265,99.688942 1.3086083,101.33616 0.82338658,103.00682 0.3810646,104.688 -0.00562636,106.39913 4.6701809e-5,108.14766 0.0792055,109.65971 0.34265057,111.15337 0.77994818,112.60433 c 0.45573502,1.48417 1.02832832,2.93663 1.95663072,4.19665 0.8082118,1.12002 1.6737368,2.20409 2.6997124,3.13493 0.9152521,0.76449 1.8633552,1.49945 2.9507118,2.00701 1.2061718,0.57618 2.4632029,1.03775 3.7853869,1.26498 1.444033,0.20134 2.904206,0.31606 4.348239,0.0332 1.421924,-0.28258 2.810898,-0.69575 4.1491,-1.25798 1.32834,-0.57303 2.650018,-1.17989 3.868009,-1.96649 1.158808,-0.80106 2.261832,-1.68058 3.187881,-2.75028 1.132004,-1.33396 2.15024,-2.75803 2.93555,-4.32723 0.920936,-1.83981 1.7358,-3.73063 2.229542,-5.73564 0.540402,-2.09727 0.993641,-4.21833 1.26597,-6.36866 0.288094,-2.099278 0.492863,-4.208576 0.482638,-6.330461 0.0066,-2.439029 -0.0453,-4.880551 -0.296395,-7.308596 -0.281882,-2.598684 -0.622386,-5.186364 -1.086697,-7.759126 -0.455724,-2.366048 -0.930688,-4.727654 -1.596557,-7.045972 -0.696939,-2.510611 -1.415217,-5.015012 -2.214458,-7.495309 -0.867141,-2.696261 -1.796894,-5.372214 -2.823782,-8.012228 -1.103035,-2.755082 -2.219263,-5.50607 -3.41908,-8.220646 -1.092348,-2.388948 -2.17236,-4.784086 -3.309829,-7.151958 -1.084883,-2.118576 -2.106571,-4.27516 -3.364295,-6.299241 -1.13251,-1.764 -2.292088,-3.507946 -3.579739,-5.163806 -1.12278,-1.627044 -3.4237624,-0.03914 -2.300971,1.58786 z" />
  </g>
</svg>
