<?xml version="1.0" encoding="UTF-8" standalone="no"?>
<svg
   xmlns:dc="http://purl.org/dc/elements/1.1/"
   xmlns:cc="http://creativecommons.org/ns#"
   xmlns:rdf="http://www.w3.org/1999/02/22-rdf-syntax-ns#"
   xmlns:svg="http://www.w3.org/2000/svg"
   xmlns="http://www.w3.org/2000/svg"
   xmlns:sodipodi="http://sodipodi.sourceforge.net/DTD/sodipodi-0.dtd"
   xmlns:inkscape="http://www.inkscape.org/namespaces/inkscape"
   width="200"
   height="186.573"
   viewBox="0 0 52.916 49.363484"
   version="1.1"
   id="svg237"
   inkscape:version="1.0.1 (3bc2e813f5, 2020-09-07)"
   sodipodi:docname="logo.svg">
  <defs
     id="defs231" />
  <sodipodi:namedview
     id="base"
     pagecolor="#ffffff"
     bordercolor="#666666"
     borderopacity="1.0"
     inkscape:pageopacity="0.0"
     inkscape:pageshadow="2"
     inkscape:zoom="2"
     inkscape:cx="192.73351"
     inkscape:cy="189.71606"
     inkscape:document-units="px"
     inkscape:current-layer="layer1"
     inkscape:document-rotation="0"
     showgrid="false"
     units="px"
     inkscape:window-width="1920"
     inkscape:window-height="1017"
     inkscape:window-x="0"
     inkscape:window-y="27"
     inkscape:window-maximized="1"
     scale-x="0.26458" />
  <metadata
     id="metadata234">
    <rdf:RDF>
      <cc:Work
         rdf:about="">
        <dc:format>image/svg+xml</dc:format>
        <dc:type
           rdf:resource="http://purl.org/dc/dcmitype/StillImage" />
        <dc:title></dc:title>
      </cc:Work>
    </rdf:RDF>
  </metadata>
  <g
     inkscape:label="Layer 1"
     inkscape:groupmode="layer"
     id="layer1">
    <path
       style="fill:#000000;stroke-width:0.116355"
       id="path100"
       d="m 4.2589655,12.654201 c 0.4149451,0.702213 0.8701908,1.379462 1.278082,2.085844 0.443495,0.790189 0.8032364,1.623413 1.1587826,2.455726 0.4419911,0.933821 0.8388796,1.886498 1.2129312,2.849242 0.4345676,1.087303 0.849139,2.182293 1.256151,3.280164 0.3885242,1.029479 0.7385865,2.073786 1.0676847,3.123699 0.285597,0.977723 0.535903,1.965454 0.796029,2.950208 0.245152,0.879241 0.454146,1.767714 0.595544,2.669532 0.153549,0.986817 0.277787,1.980437 0.358277,2.976237 0.08625,0.91357 0.09506,1.83038 0.08755,2.747054 0.0013,0.769542 -0.08912,1.533885 -0.195054,2.294708 -0.123187,0.786378 -0.298926,1.562752 -0.500031,2.332438 -0.164085,0.676919 -0.440698,1.311679 -0.753191,1.930863 -0.247364,0.497754 -0.570935,0.947328 -0.9295237,1.369563 -0.2633318,0.302108 -0.5730942,0.555768 -0.9054471,0.777458 -0.3954593,0.242472 -0.8163015,0.44121 -1.2413616,0.625631 -0.4100683,0.186434 -0.8400184,0.319556 -1.2820227,0.403103 -0.3734796,0.06871 -0.7487447,0.03592 -1.11952,-0.02872 C 4.7856595,47.44378 4.4538782,47.294442 4.1284696,47.142424 3.8523711,46.990834 3.5975755,46.804201 3.3639368,46.593647 3.0535062,46.325011 2.8080114,45.994715 2.5717428,45.661847 2.3255093,45.314312 2.1828757,44.918241 2.0641565,44.513418 1.9425833,44.078764 1.8959901,43.633245 1.8867902,43.183667 1.9036772,42.67875 2.030897,42.186888 2.1682007,41.703522 2.3490235,41.107274 2.5601374,40.52105 2.7920259,39.942842 2.9841991,39.519087 3.1692745,39.093433 3.387196,38.682054 3.645422,38.166425 3.9294841,37.664516 4.2171525,37.164828 4.489319,36.641674 4.8208495,36.15568 5.1485673,35.666823 5.5459441,35.105779 5.9613732,34.557312 6.3959716,34.024601 6.8192153,33.500832 7.2736823,33.00482 7.7360915,32.515831 8.2090418,32.03241 8.7065886,31.573712 9.2067254,31.118735 c 0.4630292,-0.410789 0.9334856,-0.813729 1.4127606,-1.205508 0.462163,-0.379248 0.939678,-0.738854 1.418785,-1.096229 0.453429,-0.338964 0.90743,-0.677856 1.383116,-0.985133 0.450628,-0.304924 0.921234,-0.578028 1.385877,-0.860613 0.334798,-0.198009 0.6707,-0.393661 1.019812,-0.565423 0.321298,-0.164746 0.641777,-0.331607 0.964873,-0.492917 0.302721,-0.147405 0.610197,-0.284977 0.912289,-0.433613 0.332604,-0.152274 0.651016,-0.333149 0.979328,-0.49369 0.315646,-0.162458 0.630443,-0.328439 0.947431,-0.489085 0.415935,-0.201413 0.848682,-0.364799 1.274256,-0.544109 0.261635,-0.123244 0.52947,-0.23235 0.796187,-0.343879 0.08913,-0.05259 0.210318,-0.06333 0.285206,-0.137357 0.413494,-0.505999 0.214676,-1.882735 -0.474824,-1.860566 -0.404901,-0.01 -0.648382,0.240748 -0.884826,0.511439 -0.117171,0.149138 -0.257505,0.276596 -0.383282,0.418073 -0.214342,0.225551 -0.416282,0.460219 -0.603047,0.709096 -0.201078,0.266555 -0.353875,0.564532 -0.491565,0.86753 -0.116771,0.251321 -0.18957,0.51683 -0.253622,0.785399 -0.0679,0.282682 -0.09616,0.570302 -0.09573,0.860428 0.0044,0.350796 0.06622,0.693164 0.169917,1.027174 0.126828,0.353994 0.358572,0.629846 0.645343,0.864729 0.259316,0.198827 0.54943,0.341526 0.863589,0.427307 0.368018,0.09423 0.750095,0.06597 1.123773,0.0285 0.479908,-0.0721 0.951363,-0.199161 1.409432,-0.358326 0.371791,-0.136762 0.727473,-0.312141 1.077905,-0.495835 0.367358,-0.197161 0.697116,-0.459314 1.007142,-0.736358 0.387953,-0.349798 0.720218,-0.756036 1.035442,-1.171039 0.230494,-0.303002 0.408718,-0.638869 0.565152,-0.984586 0.08835,-0.206892 0.145237,-0.424115 0.204416,-0.640453 0.04418,-0.188448 0.0667,-0.380587 0.08653,-0.572865 0.02071,-0.269599 -0.023,-0.538251 -0.0926,-0.797841 -0.06719,-0.221581 -0.201919,-0.411336 -0.343334,-0.59139 -0.01319,-0.07103 -0.337063,-0.250979 -0.256204,-0.19667 -0.03065,-0.01106 -0.191157,-0.106442 -0.272865,-0.154858 -0.06116,-0.02775 -0.161412,-0.07955 -0.246067,-0.112798 -0.102839,-0.03073 -0.202617,-0.07114 -0.306912,-0.09683 -2.089538,1.342053 -0.469366,1.718115 0.147444,1.9781 -0.580152,0.01271 0.365895,0.01667 0.444595,0.01205 0.386629,-0.0096 0.771393,-0.0514 1.156372,-0.08542 0.296046,-0.02823 0.592532,-0.05103 0.889572,-0.06531 0.282874,-0.02137 0.569122,-0.03509 0.846795,-0.09648 0.249475,-0.03171 0.498703,-0.08516 0.742381,-0.150185 0.311693,-0.05146 0.563359,-0.117869 0.868864,-0.19931 0.06359,-0.02986 0.120153,-0.06802 0.120153,-0.06802 0.03219,0.261955 0.08232,0.520818 0.15949,0.773235 0.125588,0.340233 0.339882,0.632982 0.57316,0.906441 0.277905,0.320417 0.640927,0.533439 1.015718,0.719957 0.350484,0.17486 0.707125,0.319248 1.095971,0.373872 0.497722,0.05307 0.950619,-0.148954 1.383085,-0.367719 0.312497,-0.167995 0.606481,-0.368269 0.899699,-0.567448 0.273798,-0.166556 0.493729,-0.401537 0.697947,-0.645048 0.241362,-0.304849 0.458918,-0.628337 0.672244,-0.95327 0.219764,-0.351387 0.381817,-0.735769 0.534785,-1.11987 0.185956,-0.451733 0.329025,-0.918447 0.465844,-1.386844 0.151038,-0.519134 0.28843,-1.042134 0.422611,-1.565847 0.143456,-0.548414 0.275605,-1.099806 0.42451,-1.646768 0.173162,-0.624169 0.307089,-1.257497 0.440109,-1.891046 0.15186,-0.677929 0.221378,-1.371106 0.266621,-2.063301 0.05526,-0.721717 0.07111,-1.444828 0.08928,-2.168071 0.02068,-0.798782 0.0036,-1.5973351 -0.03008,-2.395422 C 39.755014,7.7141727 39.637346,6.9073215 39.469733,6.1098634 39.361348,5.6291688 39.223719,5.1553125 39.066384,4.6885057 38.908223,4.249523 38.739304,3.8149903 38.547694,3.3895259 38.355098,2.9824875 38.129661,2.5922483 37.904022,2.2029501 37.729035,1.9169309 37.544096,1.6373102 37.346315,1.3665685 37.196158,1.1616201 37.024403,0.97583233 36.84442,0.79726111 36.667753,0.61544877 36.453297,0.49108742 36.228906,0.37795771 35.930134,0.25189005 35.620337,0.14483351 35.301133,0.08490665 35.096263,0.03706454 34.8831,-0.00139736 34.67145,0.00219991 34.467803,-0.00729917 34.269227,0.01416136 34.072366,0.06648924 33.795287,0.16533977 33.562369,0.345824 33.344254,0.53796205 33.036841,0.83001485 32.806241,1.1937142 32.593601,1.5578666 c -0.24393,0.43382 -0.397223,0.9122059 -0.518449,1.3930941 -0.146767,0.4842085 -0.184917,0.9893103 -0.185458,1.4924242 0.02159,0.5614487 0.12868,1.11222 0.263345,1.655977 0.127114,0.5819993 0.272101,1.1586243 0.437769,1.7308957 0.165897,0.5736614 0.34782,1.1425201 0.525366,1.7126411 0.180762,0.5930243 0.334042,1.1932913 0.529113,1.7819043 0.212249,0.600377 0.430439,1.198252 0.65935,1.792481 0.330875,0.86537 0.739114,1.697596 1.164697,2.519492 0.480506,0.922127 1.033753,1.802472 1.57404,2.689893 0.598438,0.987177 1.205393,1.968347 1.872303,2.91096 0.719386,0.98121 1.498972,1.917096 2.286454,2.843993 0.705927,0.841905 1.451989,1.648721 2.17628,2.474628 0.717079,0.818378 1.400278,1.665155 2.125385,2.476387 0.784617,0.863919 1.551164,1.743776 2.320438,2.621254 0.62208,0.707825 1.230288,1.42762 1.822692,2.160459 0.389739,0.480247 0.794454,0.948984 1.207497,1.409405 0.176885,0.171772 0.327451,0.367191 0.500197,0.54191 0.628148,0.590162 1.546484,-0.949195 1.56138,-1.303593 -0.119449,-0.136077 -0.112297,-0.113143 -0.170909,-0.167117 -0.08546,-0.07869 -0.166458,-0.130146 -0.26332,-0.228299 -0.1502,-0.117862 -0.180665,-0.165547 -0.312402,-0.303737 -0.399126,-0.431837 -0.614694,-0.764538 -0.992474,-1.215378 -0.620396,-0.731845 -1.225504,-1.476816 -1.8611,-2.195641 -0.766234,-0.881672 -1.549248,-1.748133 -2.327998,-2.618659 -0.708738,-0.826856 -1.428065,-1.644301 -2.134336,-2.473277 -0.718743,-0.81628 -1.461597,-1.610901 -2.174248,-2.432648 -0.751466,-0.88546 -1.492077,-1.781188 -2.187544,-2.711644 -0.648029,-0.904224 -1.255572,-1.83614 -1.834413,-2.786188 -0.53133,-0.847406 -1.047632,-1.703863 -1.525319,-2.582951 C 36.712221,13.989288 36.299694,13.227829 35.957745,12.431391 35.714845,11.887982 35.487073,11.337606 35.291166,10.7753 35.097883,10.201099 34.936515,9.6173182 34.756699,9.038824 34.586369,8.4769973 34.410599,7.9168017 34.245252,7.3534662 34.089267,6.809542 33.939738,6.2638586 33.815851,5.7115613 33.722437,5.2809253 33.624052,4.8480025 33.596743,4.4070889 c -0.01983,-0.3478195 0.0053,-0.691703 0.08725,-1.0314045 0.09429,-0.3383777 0.181298,-0.6798513 0.338677,-0.9956515 0.124001,-0.2203006 0.257531,-0.4338596 0.416691,-0.6307383 0.03342,-0.032631 0.240354,-0.1801588 0.09295,-0.1116081 -0.168782,0.033466 0.0018,-0.0044 0.07912,0.014908 0.09765,0.012753 0.189808,0.00132 0.28408,0.038919 0.198259,0.069518 0.403239,0.1189654 0.598724,0.1969358 0.01086,0.016843 0.06708,0.084901 0.09617,0.1134464 0.116903,0.1343968 0.222825,0.2784244 0.347393,0.4062951 0.167916,0.2227721 0.287814,0.4747622 0.428847,0.7147028 0.195972,0.3171988 0.404597,0.6288916 0.545014,0.9761874 0.157626,0.3806259 0.308804,0.7645854 0.43492,1.1569443 0.131081,0.4076671 0.242988,0.8206206 0.349007,1.2354645 0.154102,0.6970418 0.236018,1.4039699 0.261739,2.1176919 0.03435,0.7569026 0.03193,1.5146413 0.02234,2.2721593 -0.01451,0.688353 -0.05331,1.376436 -0.100108,2.063271 -0.058,0.612057 -0.113438,1.225354 -0.235292,1.828915 -0.125439,0.603112 -0.28153,1.199149 -0.43835,1.794767 -0.139577,0.554017 -0.293126,1.104375 -0.428732,1.659417 -0.127638,0.505185 -0.25214,1.01103 -0.40626,1.509086 -0.113803,0.401247 -0.225982,0.805141 -0.393374,1.188084 -0.116248,0.26876 -0.220275,0.546852 -0.38345,0.791501 -0.174187,0.26226 -0.347336,0.525658 -0.546009,0.770415 -0.0959,0.112946 -0.198857,0.210524 -0.320993,0.295866 -0.22385,0.155585 -0.441275,0.323007 -0.682455,0.451353 -0.05495,0.02872 -0.419519,0.156782 -0.228946,0.159802 -0.185327,-0.04041 -0.367776,-0.09258 -0.538656,-0.178096 -0.158531,-0.07678 -0.326042,-0.148174 -0.459472,-0.264629 -0.09035,-0.09159 -0.175656,-0.186856 -0.259981,-0.283913 -0.07474,-0.15043 -0.114167,-0.317366 -0.146499,-0.484486 -0.03879,-0.194718 -0.06836,-0.39119 -0.110131,-0.585145 -0.05758,-0.523135 0.04821,-0.381583 -0.737219,-0.832326 -0.07471,-0.04088 -0.438071,-0.206067 -0.57136,-0.256864 -0.02652,-0.0063 -0.05655,-0.01192 -0.08178,-0.0018 -0.259643,0.0503 -0.516075,0.11553 -0.770844,0.185201 -0.280632,0.06752 -0.561057,0.134861 -0.842437,0.197619 -0.207314,0.03375 -0.409712,0.0843 -0.613838,0.130433 -0.237557,0.01442 -0.472471,0.06322 -0.711018,0.07009 -0.312585,0.02868 -0.62598,0.04833 -0.938183,0.08139 -0.350022,0.03599 -0.700784,0.06273 -1.051783,0.08707 -0.228524,0.0039 -0.198413,0.0096 -0.458667,-0.0077 0.527491,0.249132 1.997698,0.542043 -0.18263,1.73416 -0.05852,-0.02203 -0.111397,-0.05406 -0.172089,-0.07158 -0.09669,-0.05106 -0.03984,-0.01623 0.02586,0.02335 0.224579,0.111322 -0.01161,-0.02194 0.104572,0.06143 0.144568,0.09872 -0.06874,-0.01275 -0.08355,-0.06021 -0.01135,-0.02225 -0.06654,-0.123099 -0.04992,-0.06916 -0.01913,-0.145228 -0.0303,0.05177 -0.04336,0.101362 -0.0086,0.0944 -0.0082,0.189244 -0.0446,0.278512 -0.02902,0.11682 -0.0538,0.234721 -0.110609,0.342349 -0.09323,0.213097 -0.211497,0.411665 -0.354667,0.595645 -0.237381,0.30774 -0.484574,0.610831 -0.76667,0.878982 -0.211932,0.17445 -0.412909,0.363941 -0.659451,0.490483 -0.264598,0.142723 -0.528844,0.288452 -0.813795,0.387359 -0.318878,0.115202 -0.640211,0.21531 -0.978413,0.25637 -0.149124,0.0183 -0.305531,0.02612 -0.451859,0.03378 -0.06958,0.0099 -0.139076,-0.03989 -0.201984,-0.06466 -0.05061,-0.0267 -0.05301,0.03769 -0.09306,-0.0332 -0.09886,-0.104239 -0.08129,-0.281121 -0.107607,-0.413746 -0.01011,-0.153047 -0.01442,-0.301058 0.02784,-0.451243 0.03052,-0.156055 0.06326,-0.313188 0.133794,-0.456947 0.0854,-0.193132 0.173884,-0.383911 0.304921,-0.551775 0.138834,-0.191302 0.306319,-0.360281 0.4727,-0.527555 0.151714,-0.134569 0.294621,-0.277892 0.43853,-0.420668 0.305681,-0.305852 -0.115835,0.154337 -0.436723,0.102334 -0.08681,-0.605377 0.255077,-1.547489 -0.297049,-1.810502 -0.0918,-0.01131 -0.181134,0.07853 -0.270279,0.09194 -0.272382,0.11067 -0.53994,0.232365 -0.812107,0.343494 -0.468856,0.196709 -0.947752,0.370198 -1.403644,0.596581 -0.329609,0.164104 -0.65274,0.341399 -0.983259,0.502806 -0.29408,0.167842 -0.609841,0.298351 -0.906326,0.462793 -0.315418,0.146042 -0.627788,0.298342 -0.945664,0.439075 -0.330163,0.163372 -0.65485,0.337726 -0.987322,0.496446 -0.386466,0.203212 -0.771987,0.407725 -1.142401,0.639636 -0.495427,0.292646 -0.987037,0.59225 -1.470075,0.904954 -0.502151,0.339706 -0.991012,0.69779 -1.472771,1.065834 -0.503422,0.378031 -1.0083522,0.754334 -1.4931368,1.15635 -0.5054887,0.41834 -1.0075734,0.840841 -1.4911444,1.284604 -0.5347463,0.493624 -1.0668802,0.991196 -1.567993,1.519294 -0.496368,0.532437 -0.9700927,1.086001 -1.4246696,1.654544 -0.4534026,0.582104 -0.890279,1.176329 -1.3111436,1.782488 -0.3672572,0.532843 -0.6961227,1.090971 -1.0167119,1.652917 -0.2882356,0.53425 -0.5871532,1.063332 -0.847943,1.611821 -0.2191145,0.468208 -0.4506423,0.931923 -0.6290377,1.417764 -0.25809402,0.646222 -0.48493837,1.3051 -0.67902456,1.973356 C 0.15242993,41.874692 -0.00224446,42.559135 2.4733284e-5,43.258538 0.03168784,43.86335 0.13706451,44.460807 0.3119813,45.041183 c 0.18229166,0.593661 0.41132603,1.174637 0.7826422,1.678639 0.3232805,0.448002 0.6694861,0.881624 1.079871,1.253955 0.3660961,0.305793 0.7453325,0.599773 1.1802695,0.802794 0.4824625,0.230469 0.9852685,0.415095 1.5141353,0.505986 0.5776057,0.08054 1.1616674,0.126422 1.7392732,0.01328 0.5687622,-0.11303 1.1243447,-0.278296 1.6596186,-0.503185 0.5313291,-0.229209 1.0599935,-0.47195 1.5471836,-0.786586 0.4635173,-0.32042 0.9047213,-0.672223 1.2751363,-1.100098 0.452795,-0.533577 0.860085,-1.103198 1.174205,-1.730869 0.368369,-0.735915 0.694311,-1.492233 0.891805,-2.294227 0.216158,-0.838897 0.397451,-1.68731 0.506381,-2.547431 0.115236,-0.8397 0.197143,-1.683409 0.193053,-2.532152 0.0026,-0.975599 -0.01812,-1.952195 -0.118556,-2.923401 -0.112752,-1.03946 -0.248952,-2.074518 -0.434674,-3.10361 -0.182287,-0.946407 -0.37227,-1.891037 -0.638614,-2.818352 -0.278772,-1.004232 -0.56608,-2.005979 -0.885772,-2.998085 C 11.431087,24.879349 11.059191,23.808982 10.648441,22.75299 10.207232,21.650971 9.760747,20.55059 9.2808264,19.464774 8.8438928,18.509207 8.4118936,17.551164 7.9569119,16.604027 7.5229643,15.756608 7.1142943,14.893985 6.6112112,14.084364 6.1582131,13.378773 5.6943878,12.681203 5.1793341,12.018868 4.7302279,11.368059 3.8098468,12.003212 4.2589575,12.654004 Z"
       sodipodi:nodetypes="cccccccccccccccccccccccccccccccccccccccccccccccccccccccccccccccccccccccccccccccccccccccccccccccccccccccccccccccccccccccccacccccccccccccccccccccccccccccccccccccccccccccccccccccccccccccccccccccccccccccccccccccccccccccccccccccccccccccccccccccccccccccc" />
  </g>
</svg>
